<svg width="260" height="100" viewBox="0 0 260 100" fill="none" xmlns="http://www.w3.org/2000/svg">
<path d="M24.7619 28.0107C23.71 28.0107 22.8571 27.0381 22.8571 25.8384C22.8571 24.6386 23.71 23.6659 24.7619 23.6659C25.8138 23.6659 26.6666 24.6386 26.6666 25.8384C26.6666 27.0381 25.8138 28.0107 24.7619 28.0107Z" fill="#146EBE"/>
<path d="M34.5238 25.8384C34.5238 27.0381 35.3766 28.0107 36.4285 28.0107C37.4804 28.0107 38.3333 27.0381 38.3333 25.8384C38.3333 24.6386 37.4804 23.6659 36.4285 23.6659C35.3766 23.6659 34.5238 24.6386 34.5238 25.8384Z" fill="#146EBE"/>
<path d="M28.8825 28.2844H29.8261L30.435 29.5494H30.4592L31.0679 28.2844H32.0117L30.867 30.4191V31.3982H30.0269V30.4191L28.8825 28.2844Z" fill="#146EBE"/>
<path fill-rule="evenodd" clip-rule="evenodd" d="M26.4404 9.66735C25.7896 8.92501 25.7896 7.72145 26.4404 6.97911C27.0914 6.23677 28.1466 6.23677 28.7976 6.97911L31.7124 10.3037C32.2928 10.9657 32.619 11.8636 32.619 12.7998V14.7047H41.1904C43.9518 14.7047 46.1904 17.2578 46.1904 20.4073V30.7263C46.1904 33.8757 43.9518 36.4289 41.1904 36.4289H19.7619C17.0005 36.4289 14.7619 33.8757 14.7619 30.7263V20.4073C14.7619 17.2578 17.0005 14.7047 19.7619 14.7047H29.2857V12.9123L26.4404 9.66735ZM41.1904 18.5065C42.111 18.5065 42.8571 19.3575 42.8571 20.4073V30.7263C42.8571 31.7761 42.111 32.6272 41.1904 32.6272H19.7619C18.8414 32.6272 18.0952 31.7761 18.0952 30.7263V20.4073C18.0952 19.3575 18.8414 18.5065 19.7619 18.5065H41.1904Z" fill="#146EBE"/>
<path fill-rule="evenodd" clip-rule="evenodd" d="M53.3333 56.6135H31.9626L14.7833 68.968C14.2757 69.3331 13.6063 69.3835 13.0497 69.0986C12.493 68.8137 12.1428 68.2415 12.1428 67.6167V56.6135H7.61904C3.41122 56.6135 0 53.2057 0 49.0019V7.61169C0 3.40788 3.41122 0 7.61904 0H53.3333C57.5411 0 60.9523 3.40788 60.9523 7.61169V49.0019C60.9523 53.2057 57.5411 56.6135 53.3333 56.6135ZM7.61904 3.33012H53.3333C55.7003 3.33012 57.619 5.24704 57.619 7.61169V49.0019C57.619 51.3665 55.7003 53.2834 53.3333 53.2834H48.8095V42.4031C48.8095 39.2536 46.5708 36.7004 43.8095 36.7004H17.1428C14.3815 36.7004 12.1428 39.2536 12.1428 42.4031V53.2834H7.61904C5.25204 53.2834 3.33333 51.3665 3.33333 49.0019V7.61169C3.33333 5.24704 5.25204 3.33012 7.61904 3.33012ZM15.4762 64.3665L30.4548 53.5947C30.7766 53.3634 31.1528 53.2631 31.5197 53.2834H45.4761V42.4031C45.4761 41.3532 44.73 40.5022 43.8095 40.5022H17.1428C16.2223 40.5022 15.4762 41.3532 15.4762 42.4031V64.3665Z" fill="#146EBE"/>
<path fill-rule="evenodd" clip-rule="evenodd" d="M39.7621 69.8219C39.3676 69.8219 39.0479 70.1413 39.0479 70.5355V79.4486C39.0479 83.6524 42.4591 87.0603 46.6669 87.0603H67.9197L85.2074 99.6793C85.714 100.049 86.3857 100.103 86.9454 99.8194C87.5048 99.5355 87.8573 98.9618 87.8573 98.3348V87.0603H92.3811C96.589 87.0603 100 83.6524 100 79.4486V38.0585C100 33.8547 96.589 30.4468 92.3811 30.4468H83.3335C82.9389 30.4468 82.6192 30.7663 82.6192 31.1604V33.0633C82.6192 33.4574 82.9389 33.7769 83.3335 33.7769H92.3811C94.7481 33.7769 96.6668 35.6938 96.6668 38.0585V79.4486C96.6668 81.8133 94.7481 83.7302 92.3811 83.7302H87.8573V72.8498C87.8573 69.7004 85.6187 67.1472 82.8573 67.1472H56.1907C53.4293 67.1472 51.1907 69.7004 51.1907 72.8498V83.7302H46.6669C44.2999 83.7302 42.3812 81.8133 42.3812 79.4486V70.5355C42.3812 70.1413 42.0615 69.8219 41.6669 69.8219H39.7621ZM54.524 83.7302H67.7783C68.2791 83.554 68.8555 83.6193 69.3168 83.9559L84.524 95.0562V72.8498C84.524 71.8 83.7779 70.9489 82.8573 70.9489H56.1907C55.2702 70.9489 54.524 71.8 54.524 72.8498V83.7302Z" fill="#146EBE"/>
<path d="M65.4764 56.2851C65.4764 57.4849 64.6235 58.4575 63.5716 58.4575C62.5197 58.4575 61.6669 57.4849 61.6669 56.2851C61.6669 55.0854 62.5197 54.1127 63.5716 54.1127C64.6235 54.1127 65.4764 55.0854 65.4764 56.2851Z" fill="#146EBE"/>
<path d="M75.2383 58.4575C76.2902 58.4575 77.1431 57.4849 77.1431 56.2851C77.1431 55.0854 76.2902 54.1127 75.2383 54.1127C74.1864 54.1127 73.3335 55.0854 73.3335 56.2851C73.3335 57.4849 74.1864 58.4575 75.2383 58.4575Z" fill="#146EBE"/>
<path d="M71.0756 59.4448H70.122C70.1153 59.3659 70.0972 59.2944 70.0679 59.2302L70.0555 59.204L70.0437 59.1823C70.0293 59.1566 70.0125 59.1327 69.9937 59.1104C69.9872 59.1027 69.9804 59.0952 69.9732 59.0878L69.9495 59.0646C69.8998 59.0173 69.8395 58.9813 69.7686 58.9565C69.7272 58.9414 69.6828 58.9308 69.6352 58.9245C69.6007 58.9199 69.5647 58.9176 69.5268 58.9176C69.3689 58.9176 69.2352 58.956 69.1259 59.0325C69.0178 59.1091 68.9355 59.2189 68.879 59.3619C68.8239 59.505 68.7962 59.6768 68.7962 59.8772C68.7962 59.9565 68.8002 60.031 68.8081 60.1007C68.8167 60.1758 68.8297 60.2453 68.8474 60.3092C68.8572 60.3443 68.8681 60.3777 68.8806 60.4094C68.893 60.4395 68.9062 60.4682 68.9209 60.4952C68.9411 60.5329 68.9637 60.5676 68.9885 60.5992C69.0295 60.6513 69.0764 60.6951 69.1294 60.7304C69.2376 60.8013 69.3678 60.8368 69.5201 60.8368C69.6068 60.8368 69.6844 60.8261 69.7533 60.8047C69.7875 60.7935 69.8195 60.7799 69.8493 60.7639C69.8793 60.7479 69.907 60.7293 69.9325 60.7084C69.9832 60.6667 70.0244 60.6166 70.056 60.5581C70.0741 60.5249 70.089 60.4895 70.1004 60.4519C70.1097 60.4217 70.1169 60.3901 70.122 60.357L71.0756 60.3638C71.0644 60.5102 71.0233 60.6594 70.9524 60.8114C70.8812 60.9624 70.7803 61.102 70.6496 61.2304C70.5199 61.3577 70.3592 61.4602 70.1676 61.5379C69.976 61.6156 69.7533 61.6545 69.4996 61.6545C69.1818 61.6545 68.8965 61.5863 68.6439 61.4501C68.3926 61.3138 68.1936 61.1133 68.0471 60.8486C67.9018 60.584 67.829 60.2602 67.829 59.8772C67.829 59.492 67.9034 59.1677 68.0522 58.9042C68.201 58.6395 68.4017 58.4396 68.6542 58.3044C68.9067 58.1681 69.1885 58.1 69.4996 58.1C69.7184 58.1 69.9195 58.1298 70.1034 58.1895C70.2871 58.2492 70.4483 58.3365 70.5871 58.4514C70.7256 58.5651 70.8373 58.7054 70.9219 58.872C70.941 58.9096 70.9582 58.9485 70.974 58.9885C70.9921 59.0352 71.0082 59.0834 71.0219 59.1334C71.0486 59.2308 71.0665 59.3346 71.0756 59.4448Z" fill="#146EBE"/>
<path fill-rule="evenodd" clip-rule="evenodd" d="M73.5598 40.1141C74.2106 39.3718 74.2106 38.1682 73.5598 37.4259C72.9087 36.6835 71.8536 36.6835 71.2025 37.4259L68.2877 40.7504C67.7074 41.4125 67.3812 42.3104 67.3812 43.2466V45.1515H58.8097C56.0484 45.1515 53.8097 47.7046 53.8097 50.8541V61.1731C53.8097 64.3225 56.0484 66.8757 58.8097 66.8757H80.2383C82.9996 66.8757 85.2383 64.3225 85.2383 61.1731V50.8541C85.2383 47.7046 82.9996 45.1515 80.2383 45.1515H70.7145V43.3591L73.5598 40.1141ZM58.8097 48.9532C57.8892 48.9532 57.1431 49.8042 57.1431 50.8541V61.1731C57.1431 62.2229 57.8892 63.0739 58.8097 63.0739H80.2383C81.1588 63.0739 81.905 62.2229 81.905 61.1731V50.8541C81.905 49.8042 81.1588 48.9532 80.2383 48.9532H58.8097Z" fill="#146EBE"/>
<path d="M139.015 63H133.083L142.121 36.8182H149.255L158.281 63H152.349L145.79 42.8011H145.586L139.015 63ZM138.644 52.7088H152.656V57.0298H138.644V52.7088ZM166.967 36.8182V63H161.432V36.8182H166.967ZM183.654 47.7486V52.0696H171.713V47.7486H183.654ZM202.6 44.348C202.498 43.3168 202.059 42.5156 201.283 41.9446C200.507 41.3736 199.455 41.0881 198.125 41.0881C197.222 41.0881 196.459 41.2159 195.837 41.4716C195.215 41.7188 194.738 42.0639 194.405 42.5071C194.081 42.9503 193.919 43.4531 193.919 44.0156C193.902 44.4844 194 44.8935 194.213 45.2429C194.435 45.5923 194.738 45.8949 195.121 46.1506C195.505 46.3977 195.948 46.6151 196.451 46.8026C196.953 46.9815 197.49 47.1349 198.061 47.2628L200.414 47.8253C201.556 48.081 202.604 48.4219 203.559 48.848C204.513 49.2741 205.34 49.7983 206.039 50.4205C206.738 51.0426 207.279 51.7756 207.662 52.6193C208.054 53.4631 208.255 54.4304 208.263 55.5213C208.255 57.1236 207.846 58.5128 207.036 59.6889C206.235 60.8565 205.076 61.7642 203.559 62.4119C202.05 63.0511 200.23 63.3707 198.1 63.3707C195.986 63.3707 194.145 63.0469 192.577 62.3991C191.017 61.7514 189.799 60.7926 188.921 59.5227C188.051 58.2443 187.596 56.6634 187.553 54.7798H192.909C192.969 55.6577 193.221 56.3906 193.664 56.9787C194.115 57.5582 194.716 57.9972 195.466 58.2955C196.225 58.5852 197.081 58.7301 198.036 58.7301C198.973 58.7301 199.787 58.5937 200.478 58.321C201.176 58.0483 201.718 57.669 202.101 57.1832C202.485 56.6974 202.676 56.1392 202.676 55.5085C202.676 54.9205 202.502 54.4261 202.152 54.0256C201.811 53.625 201.309 53.2841 200.644 53.0028C199.988 52.7216 199.182 52.4659 198.228 52.2358L195.377 51.5199C193.169 50.983 191.426 50.1435 190.148 49.0014C188.87 47.8594 188.235 46.321 188.243 44.3864C188.235 42.8011 188.657 41.4162 189.509 40.2315C190.37 39.0469 191.55 38.1222 193.05 37.4574C194.55 36.7926 196.255 36.4602 198.164 36.4602C200.107 36.4602 201.803 36.7926 203.252 37.4574C204.709 38.1222 205.843 39.0469 206.652 40.2315C207.462 41.4162 207.88 42.7884 207.905 44.348H202.6ZM233.886 36.8182V63H229.104L217.714 46.5213H217.522V63H211.987V36.8182H216.844L228.146 53.2841H228.376V36.8182H233.886ZM252.662 44.348C252.56 43.3168 252.121 42.5156 251.346 41.9446C250.57 41.3736 249.517 41.0881 248.188 41.0881C247.284 41.0881 246.522 41.2159 245.9 41.4716C245.277 41.7188 244.8 42.0639 244.468 42.5071C244.144 42.9503 243.982 43.4531 243.982 44.0156C243.965 44.4844 244.063 44.8935 244.276 45.2429C244.498 45.5923 244.8 45.8949 245.184 46.1506C245.567 46.3977 246.01 46.6151 246.513 46.8026C247.016 46.9815 247.553 47.1349 248.124 47.2628L250.476 47.8253C251.618 48.081 252.667 48.4219 253.621 48.848C254.576 49.2741 255.402 49.7983 256.101 50.4205C256.8 51.0426 257.341 51.7756 257.725 52.6193C258.117 53.4631 258.317 54.4304 258.326 55.5213C258.317 57.1236 257.908 58.5128 257.098 59.6889C256.297 60.8565 255.138 61.7642 253.621 62.4119C252.113 63.0511 250.293 63.3707 248.162 63.3707C246.049 63.3707 244.208 63.0469 242.64 62.3991C241.08 61.7514 239.861 60.7926 238.983 59.5227C238.114 58.2443 237.658 56.6634 237.615 54.7798H242.972C243.032 55.6577 243.283 56.3906 243.726 56.9787C244.178 57.5582 244.779 57.9972 245.529 58.2955C246.287 58.5852 247.144 58.7301 248.098 58.7301C249.036 58.7301 249.85 58.5937 250.54 58.321C251.239 58.0483 251.78 57.669 252.164 57.1832C252.547 56.6974 252.739 56.1392 252.739 55.5085C252.739 54.9205 252.564 54.4261 252.215 54.0256C251.874 53.625 251.371 53.2841 250.706 53.0028C250.05 52.7216 249.245 52.4659 248.29 52.2358L245.439 51.5199C243.232 50.983 241.489 50.1435 240.211 49.0014C238.932 47.8594 238.297 46.321 238.306 44.3864C238.297 42.8011 238.719 41.4162 239.571 40.2315C240.432 39.0469 241.613 38.1222 243.113 37.4574C244.613 36.7926 246.317 36.4602 248.226 36.4602C250.169 36.4602 251.865 36.7926 253.314 37.4574C254.772 38.1222 255.905 39.0469 256.715 40.2315C257.525 41.4162 257.942 42.7884 257.968 44.348H252.662Z" fill="black"/>
</svg>
