<svg width="428" height="428" viewBox="0 0 428 428" fill="none" xmlns="http://www.w3.org/2000/svg">
<path d="M108 121.645C103.582 121.645 100 117.56 100 112.521C100 107.482 103.582 103.397 108 103.397C112.418 103.397 116 107.482 116 112.521C116 117.56 112.418 121.645 108 121.645Z" fill="white"/>
<path d="M149 112.521C149 117.56 152.582 121.645 157 121.645C161.418 121.645 165 117.56 165 112.521C165 107.482 161.418 103.397 157 103.397C152.582 103.397 149 107.482 149 112.521Z" fill="white"/>
<path fill-rule="evenodd" clip-rule="evenodd" d="M115.05 44.6029C112.316 41.4851 112.316 36.4301 115.05 33.3123C117.784 30.1944 122.216 30.1944 124.95 33.3123L137.192 47.2754C139.63 50.0559 141 53.8272 141 57.7594V65.7597H177C188.598 65.7597 198 76.483 198 89.7107V133.05C198 146.278 188.598 157.001 177 157.001H87C75.4023 157.001 66 146.278 66 133.05V89.7107C66 76.483 75.4023 65.7597 87 65.7597H127V58.2318L115.05 44.6029ZM177 81.7272C180.867 81.7272 184 85.3014 184 89.7107V133.05C184 137.46 180.867 141.034 177 141.034H87C83.1338 141.034 80 137.46 80 133.05V89.7107C80 85.3014 83.1338 81.7272 87 81.7272H177Z" fill="white"/>
<path d="M271 249.522C275.418 249.522 279 245.437 279 240.398C279 235.359 275.418 231.274 271 231.274C266.582 231.274 263 235.359 263 240.398C263 245.437 266.582 249.522 271 249.522Z" fill="white"/>
<path d="M328 240.398C328 245.437 324.418 249.522 320 249.522C315.582 249.522 312 245.437 312 240.398C312 235.359 315.582 231.274 320 231.274C324.418 231.274 328 235.359 328 240.398Z" fill="white"/>
<path fill-rule="evenodd" clip-rule="evenodd" d="M138.243 241.777H228C228.672 241.777 229.338 241.756 230 241.716V260.927C230 274.155 239.402 284.878 251 284.878H341C352.598 284.878 362 274.155 362 260.927V217.587C362 204.36 352.598 193.636 341 193.636H301V186.108L312.949 172.479C315.684 169.362 315.684 164.307 312.949 161.189C310.215 158.071 305.785 158.071 303.051 161.189L290.809 175.152C288.371 177.932 287 181.704 287 185.636V193.636H260V35.9691C260 18.3131 245.672 4 228 4H36C18.3271 4 4 18.3131 4 35.9691V209.808C4 227.464 18.3271 241.777 36 241.777H55V287.99C55 290.614 56.4707 293.018 58.8086 294.214C61.1465 295.411 63.958 295.199 66.0898 293.666L138.243 241.777ZM246 194.319V35.9691C246 26.0376 237.941 17.9865 228 17.9865H36C26.0586 17.9865 18 26.0376 18 35.9691V209.808C18 219.74 26.0586 227.791 36 227.791H55V182.093C55 168.865 64.4023 158.142 76 158.142H188C199.598 158.142 209 168.865 209 182.093V227.791H228C228.676 227.791 229.344 227.753 230 227.681V217.587C230 206.325 236.816 196.878 246 194.319ZM244 218.055V217.587C244 215.503 244.697 213.604 245.844 212.183C245.568 214.275 244.932 216.253 244 218.055ZM244 237.5C253.564 231.972 260 221.641 260 209.808V209.604H341C344.867 209.604 348 213.178 348 217.587V260.927C348 265.336 344.867 268.911 341 268.911H251C247.133 268.911 244 265.336 244 260.927V237.5ZM131.91 229.098L69 274.34V182.093C69 177.684 72.1338 174.109 76 174.109H188C191.867 174.109 195 177.684 195 182.093V227.791H136.383C134.842 227.705 133.262 228.126 131.91 229.098Z" fill="white"/>
<path fill-rule="evenodd" clip-rule="evenodd" d="M168 300.249C168 298.594 169.344 297.252 171 297.252H179C180.656 297.252 182 298.594 182 300.249V337.685C182 347.616 190.059 355.667 200 355.667H219V309.97C219 296.742 228.402 286.019 240 286.019H352C363.598 286.019 373 296.742 373 309.97V355.667H392C401.941 355.667 410 347.616 410 337.685V163.846C410 153.914 401.941 145.863 392 145.863H354C352.344 145.863 351 144.521 351 142.866V134.874C351 133.219 352.344 131.877 354 131.877H392C409.672 131.877 424 146.19 424 163.846V337.685C424 355.341 409.672 369.654 392 369.654H373V417.007C373 419.64 371.52 422.05 369.17 423.242C366.82 424.434 363.998 424.207 361.871 422.653L289.262 369.654H200C182.328 369.654 168 355.341 168 337.685V300.249ZM288.668 355.667H233V309.97C233 305.56 236.133 301.986 240 301.986H352C355.867 301.986 359 305.56 359 309.97V403.236L295.129 356.615C293.191 355.201 290.771 354.927 288.668 355.667Z" fill="white"/>
<path d="M108 121.645C103.582 121.645 100 117.56 100 112.521C100 107.482 103.582 103.397 108 103.397C112.418 103.397 116 107.482 116 112.521C116 117.56 112.418 121.645 108 121.645Z" stroke="white" stroke-width="8"/>
<path d="M149 112.521C149 117.56 152.582 121.645 157 121.645C161.418 121.645 165 117.56 165 112.521C165 107.482 161.418 103.397 157 103.397C152.582 103.397 149 107.482 149 112.521Z" stroke="white" stroke-width="8"/>
<path fill-rule="evenodd" clip-rule="evenodd" d="M115.05 44.6029C112.316 41.4851 112.316 36.4301 115.05 33.3123C117.784 30.1944 122.216 30.1944 124.95 33.3123L137.192 47.2754C139.63 50.0559 141 53.8272 141 57.7594V65.7597H177C188.598 65.7597 198 76.483 198 89.7107V133.05C198 146.278 188.598 157.001 177 157.001H87C75.4023 157.001 66 146.278 66 133.05V89.7107C66 76.483 75.4023 65.7597 87 65.7597H127V58.2318L115.05 44.6029ZM177 81.7272C180.867 81.7272 184 85.3014 184 89.7107V133.05C184 137.46 180.867 141.034 177 141.034H87C83.1338 141.034 80 137.46 80 133.05V89.7107C80 85.3014 83.1338 81.7272 87 81.7272H177Z" stroke="white" stroke-width="8"/>
<path d="M271 249.522C275.418 249.522 279 245.437 279 240.398C279 235.359 275.418 231.274 271 231.274C266.582 231.274 263 235.359 263 240.398C263 245.437 266.582 249.522 271 249.522Z" stroke="white" stroke-width="8"/>
<path d="M328 240.398C328 245.437 324.418 249.522 320 249.522C315.582 249.522 312 245.437 312 240.398C312 235.359 315.582 231.274 320 231.274C324.418 231.274 328 235.359 328 240.398Z" stroke="white" stroke-width="8"/>
<path fill-rule="evenodd" clip-rule="evenodd" d="M138.243 241.777H228C228.672 241.777 229.338 241.756 230 241.716V260.927C230 274.155 239.402 284.878 251 284.878H341C352.598 284.878 362 274.155 362 260.927V217.587C362 204.36 352.598 193.636 341 193.636H301V186.108L312.949 172.479C315.684 169.362 315.684 164.307 312.949 161.189C310.215 158.071 305.785 158.071 303.051 161.189L290.809 175.152C288.371 177.932 287 181.704 287 185.636V193.636H260V35.9691C260 18.3131 245.672 4 228 4H36C18.3271 4 4 18.3131 4 35.9691V209.808C4 227.464 18.3271 241.777 36 241.777H55V287.99C55 290.614 56.4707 293.018 58.8086 294.214C61.1465 295.411 63.958 295.199 66.0898 293.666L138.243 241.777ZM246 194.319V35.9691C246 26.0376 237.941 17.9865 228 17.9865H36C26.0586 17.9865 18 26.0376 18 35.9691V209.808C18 219.74 26.0586 227.791 36 227.791H55V182.093C55 168.865 64.4023 158.142 76 158.142H188C199.598 158.142 209 168.865 209 182.093V227.791H228C228.676 227.791 229.344 227.753 230 227.681V217.587C230 206.325 236.816 196.878 246 194.319ZM244 218.055V217.587C244 215.503 244.697 213.604 245.844 212.183C245.568 214.275 244.932 216.253 244 218.055ZM244 237.5C253.564 231.972 260 221.641 260 209.808V209.604H341C344.867 209.604 348 213.178 348 217.587V260.927C348 265.336 344.867 268.911 341 268.911H251C247.133 268.911 244 265.336 244 260.927V237.5ZM131.91 229.098L69 274.34V182.093C69 177.684 72.1338 174.109 76 174.109H188C191.867 174.109 195 177.684 195 182.093V227.791H136.383C134.842 227.705 133.262 228.126 131.91 229.098Z" stroke="white" stroke-width="8"/>
<path fill-rule="evenodd" clip-rule="evenodd" d="M168 300.249C168 298.594 169.344 297.252 171 297.252H179C180.656 297.252 182 298.594 182 300.249V337.685C182 347.616 190.059 355.667 200 355.667H219V309.97C219 296.742 228.402 286.019 240 286.019H352C363.598 286.019 373 296.742 373 309.97V355.667H392C401.941 355.667 410 347.616 410 337.685V163.846C410 153.914 401.941 145.863 392 145.863H354C352.344 145.863 351 144.521 351 142.866V134.874C351 133.219 352.344 131.877 354 131.877H392C409.672 131.877 424 146.19 424 163.846V337.685C424 355.341 409.672 369.654 392 369.654H373V417.007C373 419.64 371.52 422.05 369.17 423.242C366.82 424.434 363.998 424.207 361.871 422.653L289.262 369.654H200C182.328 369.654 168 355.341 168 337.685V300.249ZM288.668 355.667H233V309.97C233 305.56 236.133 301.986 240 301.986H352C355.867 301.986 359 305.56 359 309.97V403.236L295.129 356.615C293.191 355.201 290.771 354.927 288.668 355.667Z" stroke="white" stroke-width="8"/>
</svg>
